<?xml version="1.0" encoding="utf-8"?>
<!-- Generator: Adobe Illustrator 23.1.1, SVG Export Plug-In . SVG Version: 6.00 Build 0)  -->
<svg version="1.1" id="Calque_1" xmlns="http://www.w3.org/2000/svg" xmlns:xlink="http://www.w3.org/1999/xlink" x="0px" y="0px"
	 viewBox="0 0 25.5 19.8" style="enable-background:new 0 0 25.5 19.8;" xml:space="preserve">
<style type="text/css">
	.st0{fill:#FFFFFF;}
</style>
<rect x="7.2" y="3.2" class="st0" width="11.2" height="1.2"/>
<g>
	<path class="st0" d="M15.2,4.1h-4.7V2.7c0-0.7,0.6-1.3,1.3-1.3h2.1c0.7,0,1.3,0.6,1.3,1.3V4.1z M11.4,3.2h3V2.7
		c0-0.2-0.2-0.4-0.4-0.4h-2.1c-0.2,0-0.4,0.2-0.4,0.4v0.5H11.4z"/>
</g>
<path class="st0" d="M8.3,4.9l0.6,9c0,0.3,0.3,0.6,0.7,0.6h6.5c0.4,0,0.7-0.3,0.7-0.6l0.6-9C17.4,4.9,8.3,4.9,8.3,4.9z M10.6,13.1
	l-0.3-6.7h0.9l0.3,6.7H10.6z M13.3,13.1h-0.9V6.4h0.9V13.1z M15,13.1h-0.9l0.3-6.7h0.9L15,13.1z"/>
</svg>