<?xml version="1.0" encoding="utf-8"?>
<!-- Generator: Adobe Illustrator 23.1.1, SVG Export Plug-In . SVG Version: 6.00 Build 0)  -->
<svg version="1.1" id="Calque_1" xmlns="http://www.w3.org/2000/svg" xmlns:xlink="http://www.w3.org/1999/xlink" x="0px" y="0px"
	 viewBox="0 0 25.5 19.8" style="enable-background:new 0 0 25.5 19.8;" xml:space="preserve">
<style type="text/css">
	.st0{fill:#FFFFFF;}
</style>
<g>
	<path class="st0" d="M12.6,14c-5.2,0-9.2-4.6-9.4-4.8L2.8,8.7l0.4-0.5c0.2-0.2,4.3-4.8,9.4-4.8S21.8,8,22,8.2l0.4,0.5l-0.3,0.5
		C21.9,9.3,17.8,14,12.6,14z M4.6,8.7c1.1,1.1,4.3,3.9,8,3.9s6.9-2.8,8-3.9c-1.1-1.1-4.3-3.9-8-3.9C8.9,4.9,5.7,7.6,4.6,8.7z"/>
</g>
<circle class="st0" cx="12.6" cy="8.7" r="4.2"/>
</svg>
