<?xml version="1.0" encoding="utf-8"?>
<!-- Generator: Adobe Illustrator 23.1.1, SVG Export Plug-In . SVG Version: 6.00 Build 0)  -->
<svg version="1.1" id="Calque_1" xmlns="http://www.w3.org/2000/svg" xmlns:xlink="http://www.w3.org/1999/xlink" x="0px" y="0px"
	 viewBox="0 0 13.6 13.6" style="enable-background:new 0 0 13.6 13.6;" xml:space="preserve">
<style type="text/css">
	.st0{fill:#FFFFFF;}
</style>
<path class="st0" d="M6.7,2.3c-3.1,0-5.6,2.5-5.6,5.6c0,1,0.3,2,0.8,2.8C2,10.9,2.2,11,2.4,11H11c0.2,0,0.4-0.1,0.5-0.3
	c0.5-0.8,0.8-1.8,0.8-2.8C12.3,4.8,9.8,2.3,6.7,2.3z M6.7,3.5C7,3.5,7.2,3.7,7.3,4c0,0-0.1,0.1-0.1,0.1L7,4.7
	C6.9,4.7,6.8,4.8,6.7,4.8c-0.3,0-0.6-0.3-0.6-0.6S6.4,3.5,6.7,3.5z M3,9.1c-0.3,0-0.6-0.3-0.6-0.6c0-0.3,0.3-0.6,0.6-0.6
	s0.6,0.3,0.6,0.6C3.6,8.8,3.3,9.1,3,9.1z M3.9,6C3.6,6,3.3,5.7,3.3,5.4s0.3-0.6,0.6-0.6S4.5,5,4.5,5.4S4.2,6,3.9,6z M8.7,4.6
	L7.5,8.2c0.3,0.2,0.4,0.6,0.4,0.9c0,0.2-0.1,0.4-0.2,0.6H5.6C5.5,9.5,5.5,9.3,5.5,9.1c0-0.7,0.5-1.2,1.2-1.2l1.2-3.6
	C7.9,4.1,8.1,3.9,8.4,4C8.6,4.1,8.8,4.4,8.7,4.6L8.7,4.6z M9,5.7l0.3-0.9c0.1,0,0.1,0,0.2,0c0.3,0,0.6,0.3,0.6,0.6S9.8,6,9.5,6
	C9.3,6,9.1,5.9,9,5.7L9,5.7z M10.4,9.1c-0.3,0-0.6-0.3-0.6-0.6c0-0.3,0.3-0.6,0.6-0.6S11,8.1,11,8.5C11,8.8,10.8,9.1,10.4,9.1z"/>
</svg>