<?xml version="1.0" encoding="utf-8"?>
<!-- Generator: Adobe Illustrator 23.1.1, SVG Export Plug-In . SVG Version: 6.00 Build 0)  -->
<svg version="1.1" id="Calque_1" xmlns="http://www.w3.org/2000/svg" xmlns:xlink="http://www.w3.org/1999/xlink" x="0px" y="0px"
	 viewBox="0 0 13.6 13.6" style="enable-background:new 0 0 13.6 13.6;" xml:space="preserve">
<style type="text/css">
	.st0{enable-background:new    ;}
	.st1{fill:#FFFFFF;}
</style>
<g>
	<g class="st0">
		<path class="st1" d="M10.2,8.9l1.1,1c-0.4,0.5-0.9,0.9-1.6,1.1s-1.3,0.4-2.1,0.4c-0.8,0-1.5-0.1-2.1-0.4C5,10.8,4.4,10.4,4,9.9
			C3.5,9.4,3.2,8.8,3,8.1H1.5V7.2h1.3c0-0.1,0-0.2,0-0.4c0-0.2,0-0.3,0-0.4H1.5V5.4H3C3.2,4.8,3.5,4.2,4,3.7c0.4-0.5,1-0.9,1.6-1.2
			C6.3,2.2,7,2.1,7.7,2.1c0.7,0,1.4,0.1,2.1,0.4s1.1,0.6,1.6,1.1l-1.1,1C9.6,3.9,8.8,3.6,7.8,3.6C7.1,3.6,6.5,3.7,6,4.1
			C5.4,4.4,5.1,4.9,4.8,5.4h3.7v0.9h-4c0,0.2,0,0.3,0,0.4c0,0.1,0,0.3,0,0.4h4v0.9H4.8c0.3,0.6,0.6,1,1.2,1.4S7.1,10,7.8,10
			C8.8,10,9.6,9.6,10.2,8.9z"/>
	</g>
</g>
</svg>