<?xml version="1.0" encoding="utf-8"?>
<!-- Generator: Adobe Illustrator 23.1.1, SVG Export Plug-In . SVG Version: 6.00 Build 0)  -->
<svg version="1.1" id="Calque_1" xmlns="http://www.w3.org/2000/svg" xmlns:xlink="http://www.w3.org/1999/xlink" x="0px" y="0px"
	 viewBox="0 0 155.4 22.5" style="enable-background:new 0 0 155.4 22.5;" xml:space="preserve">
<style type="text/css">
	.st0{fill:#FFFFFF;}
</style>
<g>
	<g>
		<path class="st0" d="M8.5,18.3c-0.8-0.4-1.5-0.9-2-1.6l1.9-2.2c0.8,1.1,1.7,1.6,2.7,1.6c1.4,0,2-0.8,2-2.4V6.9H8V4.2h8.4v9.3
			c0,1.8-0.4,3.1-1.3,4s-2.2,1.3-3.9,1.3C10.2,18.9,9.3,18.7,8.5,18.3z"/>
		<path class="st0" d="M23.3,17.2c-1.1-1.1-1.7-2.8-1.7-4.9V4.2h3.3v7.9c0,2.6,1.1,3.9,3.2,3.9c1,0,1.8-0.3,2.4-0.9
			c0.5-0.6,0.8-1.6,0.8-2.9V4.2h3.3v8.1c0,2.1-0.6,3.7-1.7,4.9s-2.7,1.7-4.8,1.7C26,18.9,24.4,18.3,23.3,17.2z"/>
		<path class="st0" d="M40,4.2h3.3v11.7h7.2v2.7H40V4.2z"/>
		<path class="st0" d="M65.6,16v2.7H54.5V4.2h10.9v2.7h-7.6V10h6.7v2.6h-6.7V16H65.6z"/>
		<path class="st0" d="M87.6,12.7H84v3.5h-2.7v-3.5h-3.6v-2.5h3.6V6.7H84v3.5h3.6V12.7z"/>
		<path class="st0" d="M100.5,4.2h3.3v11.7h7.2v2.7h-10.6V4.2z"/>
		<path class="st0" d="M115,4.2h3.3v14.4H115V4.2z"/>
		<path class="st0" d="M123.8,4.2h3.3v11.7h7.2v2.7h-10.6V4.2z"/>
		<path class="st0" d="M143.7,13.5v5.1h-3.3v-5.1l-5.6-9.3h3.5l3.8,6.4l3.8-6.4h3.3L143.7,13.5z"/>
	</g>
</g>
</svg>
