<?xml version="1.0" encoding="utf-8"?>
<!-- Generator: Adobe Illustrator 23.1.1, SVG Export Plug-In . SVG Version: 6.00 Build 0)  -->
<svg version="1.1" id="Calque_1" xmlns="http://www.w3.org/2000/svg" xmlns:xlink="http://www.w3.org/1999/xlink" x="0px" y="0px"
	 viewBox="0 0 13.6 13.6" style="enable-background:new 0 0 13.6 13.6;" xml:space="preserve">
<style type="text/css">
	.st0{fill:#e5e5e5;}
</style>
<g>
	<g id="shopping-cart_21_">
		<path class="st0" d="M4.3,10.3c-0.6,0-1.1,0.5-1.1,1.1s0.5,1.1,1.1,1.1s1.1-0.5,1.1-1.1S4.9,10.3,4.3,10.3z M0.8,1.1v1.1H2L4,6.6
			L3.2,8C3.2,8.2,3.1,8.4,3.1,8.6c0,0.6,0.5,1.1,1.1,1.1h6.8V8.6H4.5c-0.1,0-0.1-0.1-0.1-0.1V8.4l0.5-1h4.2c0.5,0,0.8-0.2,1-0.6
			l2.1-3.7C12.2,3,12.2,3,12.2,2.9c0-0.3-0.2-0.6-0.6-0.6H3.2L2.7,1.1H0.8z M10,10.3c-0.6,0-1.1,0.5-1.1,1.1s0.5,1.1,1.1,1.1
			c0.6,0,1.1-0.5,1.1-1.1S10.6,10.3,10,10.3z"/>
	</g>
</g>
</svg>
